<?xml version="1.0" standalone="no"?>
<!DOCTYPE svg PUBLIC "-//W3C//DTD SVG 1.1//EN" "http://www.w3.org/Graphics/SVG/1.1/DTD/svg11.dtd" >
<svg xmlns="http://www.w3.org/2000/svg">
<metadata>Generated by IcoMoon</metadata>
<defs>
<font id="icomoon" horiz-adv-x="1024">
<font-face units-per-em="1024" ascent="960" descent="-64" />
<missing-glyph horiz-adv-x="1024" />
<glyph unicode="&#x20;" horiz-adv-x="512" d="" />
<glyph unicode="&#xe900;" glyph-name="arrow-right" horiz-adv-x="1444" d="M0 453.12v-10.24h1423.36l-496.64-496.64 10.24-10.24 506.88 512-506.88 512-10.24-10.24 496.64-496.64z" />
<glyph unicode="&#xe901;" glyph-name="play" horiz-adv-x="702" d="M0-64v1024l701.935-512-701.935-512zM24.774 918.71v-941.419l644.129 470.71-644.129 470.71z" />
<glyph unicode="&#xe902;" glyph-name="arrow-up" horiz-adv-x="724" d="M358.367-64.192h7.265v1009.855l352.36-352.36 7.265 7.265-363.257 359.625-363.257-359.625 7.265-7.265 352.36 352.36z" />
<glyph unicode="&#xe903;" glyph-name="download" horiz-adv-x="836" d="M417.922 209.658l-233.839 233.839 22.481 24.731 211.359-211.359 211.359 211.359 22.481-24.731zM399.937 863.966h33.726v-631.826h-33.726v631.826zM78.396 65.762h679.037v-33.726h-679.037v33.726z" />
<glyph unicode="&#xe904;" glyph-name="location" horiz-adv-x="660" d="M330.081-64l-11.253 18.755c-13.128 18.755-318.828 498.872-318.828 675.165 0 181.919 148.161 330.081 330.081 330.081s330.081-148.161 330.081-330.081c0-176.293-305.7-656.41-318.828-677.040l-11.253-16.879zM330.081 931.868c-166.916 0-301.949-135.033-301.949-301.949 0-150.037 243.81-551.385 301.949-643.282 58.139 91.897 301.949 493.245 301.949 643.282 0 166.916-135.033 301.949-301.949 301.949zM330.081 513.641c-69.392 0-123.78 56.264-123.78 123.78s56.264 123.78 123.78 123.78 123.78-56.264 123.78-123.78-56.264-123.78-123.78-123.78zM330.081 734.945c-52.513 0-95.648-43.136-95.648-95.648s43.136-95.648 95.648-95.648 95.648 43.136 95.648 95.648-43.136 95.648-95.648 95.648z" />
<glyph unicode="&#xe905;" glyph-name="email" horiz-adv-x="1166" d="M208 695.73v-577.050h748.030v577.050h-748.030zM911.31 666.58l-328.32-357.5-328.32 357.5h656.64zM237.15 147.81v0 495.13l345.84-376.62 343.91 374.52v-493.040h-689.75z" />
<glyph unicode="&#xe906;" glyph-name="share" horiz-adv-x="652" d="M181.761 346.742c-26.069 0-52.138 10.024-72.187 30.072-40.103 40.103-40.103 104.277 0 142.372 40.103 40.103 104.277 40.103 142.372 0 20.048-20.048 30.072-44.116 30.072-72.187 0-26.069-10.024-52.138-30.072-72.187v0 0 0c-16.045-18.047-42.114-28.071-70.185-28.071zM181.761 519.186c-18.047 0-36.093-6.021-50.135-20.048-28.071-28.071-28.071-72.187 0-100.257 26.069-26.069 74.188-26.069 100.257 0v0c14.040 14.040 20.048 32.087 20.048 50.135s-8.023 36.093-20.048 50.135c-12.026 14.040-30.072 20.048-50.135 20.048zM470.508 629.467c-26.069 0-52.138 10.024-72.187 30.072-40.103 40.103-40.103 104.277 0 142.372 20.048 20.048 44.116 30.072 72.187 30.072s52.138-10.024 72.187-30.072c40.103-40.103 40.103-104.277 0-142.372v0c-20.048-20.048-46.117-30.072-72.187-30.072zM470.508 801.921c-18.047 0-36.093-8.023-50.135-20.048-28.071-28.071-28.071-72.187 0-100.257s72.187-28.071 100.257 0c28.071 28.071 28.071 72.187 0 100.257-14.040 12.026-32.087 20.048-50.135 20.048zM397.751 679.904l21.27-21.27-167.306-167.306-21.27 21.27 167.306 167.306zM466.505 64c-26.069 0-52.138 10.024-72.187 30.072v0c-40.103 40.103-40.103 104.277 0 142.372 20.048 20.048 44.116 30.072 72.187 30.072s52.138-10.024 72.187-30.072c40.103-40.103 40.103-104.277 0-142.372-20.048-20.048-46.117-30.072-72.187-30.072zM416.368 114.137c28.071-28.071 72.187-28.071 100.257 0s28.071 72.187 0 100.257c-26.069 26.069-74.188 26.069-100.257 0-28.071-26.069-28.071-72.187 0-100.257v0zM248.909 403.433l167.306-167.306-21.27-21.27-167.306 167.306 21.27 21.27z" />
<glyph unicode="&#xe907;" glyph-name="arrow-left" horiz-adv-x="1444" d="M1444 453.12v-10.24h-1423.36l496.64-496.64-10.24-10.24-506.88 512 506.88 512 10.24-10.24-496.64-496.64z" />
<glyph unicode="&#xe908;" glyph-name="chevron-down" horiz-adv-x="2008" d="M979.87 240.19l-383.369 383.369 32.252 32.252 351.126-351.126 351.126 351.126 32.252-32.252-383.369-383.369z" />
<glyph unicode="&#xe909;" glyph-name="chevron-up" horiz-adv-x="2008" d="M979.87 655.81l-383.369-383.369 32.252-32.252 351.126 351.126 351.126-351.126 32.252 32.252-383.369 383.369z" />
<glyph unicode="&#xe90a;" glyph-name="chevron-right" horiz-adv-x="328" d="M328.441 448.011l-303.359 303.359-25.522-25.522 277.846-277.846-277.846-277.846 25.522-25.522 303.359 303.359z" />
<glyph unicode="&#xe90b;" glyph-name="chevron-left" horiz-adv-x="328" d="M-0.441 448.011l303.359 303.359 25.522-25.522-277.846-277.846 277.846-277.846-25.522-25.522-303.359 303.359z" />
<glyph unicode="&#xe90c;" glyph-name="globe" d="M876.267 465.389h-165.837c-2.071 67.947-17.508 134.052-44.462 194.85 34.553 13.363 67.026 31.096 96.736 52.75 66.338-62.881 108.942-150.408 113.551-247.603zM529.164 798.215c35.705-34.778 65.41-74.628 88.68-117.696-28.328-7.827-58.047-12.436-88.68-13.823v131.523zM494.611 666.698c-30.408 1.371-60.113 5.986-88.439 13.823 23.263 43.068 52.75 82.698 88.439 117.471v-131.284zM494.611 632.153v-166.767h-146.718c2.304 64.033 17.045 126.45 42.843 183.804 33.166-9.906 67.947-15.429 103.89-17.045zM494.611 430.836v-178.506c-34.089-1.371-67.247-6.45-99.042-15.429-28.792 60.113-45.373 126.232-47.677 194.165h146.718zM494.611 217.785v-119.537c-32.716 32.010-60.356 68.178-82.698 107.339 26.487 6.913 54.352 10.818 82.698 12.211zM457.292 87.19c-59.65 8.979-114.478 32.248-161.003 66.562 25.335 16.822 52.75 30.867 81.998 41.463 21.414-39.164 47.904-75.544 78.999-108.029zM529.164 217.785c28.561-1.152 56.201-5.297 82.919-12.211-22.342-39.164-49.982-75.317-82.919-107.339v119.537zM529.164 252.338v178.506h146.952c-2.304-67.947-18.885-133.829-47.677-194.165-31.785 8.979-64.948 14.276-99.275 15.666zM529.164 465.389v166.767c35.93 1.371 70.952 7.138 104.108 17.045 25.799-57.357 40.539-119.776 42.843-183.804h-146.952zM651.006 691.578c-22.342 42.606-50.67 81.998-84.071 117.235 63.106-9.668 120.689-35.241 168.83-72.787-26.024-17.965-54.59-33.166-84.759-44.462zM457.065 808.81c-33.626-35.241-61.949-74.853-84.291-117.471-30.169 11.524-58.736 26.487-84.759 44.684 48.366 37.546 105.949 63.345 169.066 72.787zM261.284 712.992c29.711-21.414 62.192-39.387 96.736-52.75-26.951-61.040-42.38-126.914-44.684-194.85h-165.837c4.609 97.434 47.213 184.722 113.78 247.603zM147.506 430.836h165.837c2.304-71.635 19.349-141.191 49.060-205.003-33.626-12.667-65.41-29.255-94.437-49.293-70.246 63.345-115.856 153.401-120.464 254.278zM566.471 87.19c31.096 32.716 57.583 68.867 78.999 107.79 29.011-10.595 56.431-24.413 81.998-41.227-46.525-34.309-101.341-57.583-161.003-66.562zM755.802 176.783c-29.011 20.038-60.806 36.857-94.437 49.293 29.711 63.569 46.525 133.123 49.060 204.76h165.837c-4.609-100.652-49.982-190.708-120.464-254.053zM511.881 847.972c-220.428 0-399.853-179.425-399.853-399.853s179.425-399.853 399.853-399.853 399.853 179.425 399.853 399.853c0.228 220.428-179.2 399.853-399.853 399.853z" />
<glyph unicode="&#xe90d;" glyph-name="film" horiz-adv-x="1076" d="M820.783 56h-693.974v534.432h693.974v-166.384l129.103 129.103v-459.89l-129.103 129.103v-166.384zM153.819 83.013h639.951v204.555l129.103-129.103v329.515l-129.103-129.103v204.555h-639.951v-480.416zM357.112 611.859c-62.844 0-113.983 51.133-113.983 113.983s51.133 114.158 113.983 114.158 113.983-51.133 113.983-113.983-50.958-114.158-113.983-114.158zM357.112 812.987c-47.899 0-86.97-39.078-86.97-86.97s39.078-86.97 86.97-86.97 87.149 38.89 87.149 86.97-39.078 86.97-87.149 86.97zM617.493 611.859c-62.844 0-113.983 51.133-113.983 113.983s51.133 114.158 113.983 114.158 113.983-51.133 113.983-113.983-51.133-114.158-113.983-114.158zM617.493 812.987c-48.080 0-86.97-39.078-86.97-86.97s39.078-86.97 86.97-86.97 87.149 38.89 87.149 86.97-39.078 86.97-87.149 86.97z" />
<glyph unicode="&#xe90e;" glyph-name="pinterest" d="M877.714 448q0-119.429-58.857-220.286t-159.714-159.714-220.286-58.857q-63.429 0-124.571 18.286 33.714 53.143 44.571 93.714 5.143 19.429 30.857 120.571 11.429-22.286 41.714-38.571t65.143-16.286q69.143 0 123.429 39.143t84 107.714 29.714 154.286q0 65.143-34 122.286t-98.571 93.143-145.714 36q-60 0-112-16.571t-88.286-44-62.286-63.143-38.286-74-12.286-76.571q0-59.429 22.857-104.571t66.857-63.429q17.143-6.857 21.714 11.429 1.143 4 4.571 17.714t4.571 17.143q3.429 13.143-6.286 24.571-29.143 34.857-29.143 86.286 0 86.286 59.714 148.286t156.286 62q86.286 0 134.571-46.857t48.286-121.714q0-97.143-39.143-165.143t-100.286-68q-34.857 0-56 24.857t-13.143 59.714q4.571 20 15.143 53.429t17.143 58.857 6.571 43.143q0 28.571-15.429 47.429t-44 18.857q-35.429 0-60-32.571t-24.571-81.143q0-41.714 14.286-69.714l-56.571-238.857q-9.714-40-7.429-101.143-117.714 52-190.286 160.571t-72.571 241.714q0 119.429 58.857 220.286t159.714 159.714 220.286 58.857 220.286-58.857 159.714-159.714 58.857-220.286z" />
<glyph unicode="&#xe90f;" glyph-name="instagram" d="M512 822c121.8 0 136.2-0.4 184.4-2.6 44.4-2 68.6-9.4 84.8-15.8 21.2-8.2 36.4-18.2 52.4-34.2s25.8-31.2 34.2-52.4c6.2-16 13.6-40.2 15.8-84.8 2.2-48.2 2.6-62.6 2.6-184.4s-0.4-136.2-2.6-184.4c-2-44.4-9.4-68.6-15.8-84.8-8.2-21.2-18.2-36.4-34.2-52.4s-31.2-25.8-52.4-34.2c-16-6.2-40.2-13.6-84.8-15.8-48.2-2.2-62.6-2.6-184.4-2.6s-136.2 0.4-184.4 2.6c-44.4 2-68.6 9.4-84.8 15.8-21.2 8.2-36.4 18.2-52.4 34.2s-25.8 31.2-34.2 52.4c-6.2 16-13.6 40.2-15.8 84.8-2 48.4-2.4 62.8-2.4 184.6s0.4 136.2 2.6 184.4c2 44.4 9.4 68.6 15.8 84.8 8.2 21.2 18.2 36.4 34.2 52.4s31.2 25.8 52.4 34.2c16 6.2 40.2 13.6 84.8 15.8 48 2 62.4 2.4 184.2 2.4zM512 904.2c-124 0-139.4-0.6-188.2-2.8-48.6-2.2-81.8-10-110.8-21.2-30-11.6-55.4-27.2-80.8-52.6s-41-50.8-52.6-80.8c-11.2-29-19-62.2-21.2-110.8s-2.8-64.2-2.8-188.2c0-124 0.6-139.4 2.8-188.2 2.2-48.6 10-81.8 21.2-110.8 11.6-30 27.2-55.4 52.6-80.8s50.8-41 80.8-52.6c29-11.2 62.2-19 110.8-21.2s64.2-2.8 188.2-2.8c124 0 139.4 0.6 188.2 2.8 48.6 2.2 81.8 10 110.8 21.2 30 11.6 55.4 27.2 80.8 52.6s41 50.8 52.6 80.8c11.2 29 19 62.2 21.2 110.8s2.8 64.2 2.8 188.2c0 124-0.6 139.4-2.8 188.2-2.2 48.6-10 81.8-21.2 110.8-11.6 30-27.2 55.4-52.6 80.8s-50.8 41-80.8 52.6c-29 11.2-62.2 19-110.8 21.2-48.8 2.4-64.2 2.8-188.2 2.8zM512 682.4c-129.4 0-234.4-105-234.4-234.4s105-234.4 234.4-234.4c129.4 0 234.4 104.8 234.4 234.4 0 129.4-105 234.4-234.4 234.4zM512 296c-84 0-152 68-152 152s68 152 152 152c84 0 152-68 152-152s-68-152-152-152zM810.4 691.6c0-30.2-24.6-54.8-54.8-54.8s-54.8 24.6-54.8 54.8c0 30.2 24.6 54.8 54.8 54.8s54.8-24.6 54.8-54.8z" />
<glyph unicode="&#xe910;" glyph-name="twitter" horiz-adv-x="951" d="M925.714 726.857q-38.286-56-92.571-95.429 0.571-8 0.571-24 0-74.286-21.714-148.286t-66-142-105.429-120.286-147.429-83.429-184.571-31.143q-154.857 0-283.429 82.857 20-2.286 44.571-2.286 128.571 0 229.143 78.857-60 1.143-107.429 36.857t-65.143 91.143q18.857-2.857 34.857-2.857 24.571 0 48.571 6.286-64 13.143-106 63.714t-42 117.429v2.286q38.857-21.714 83.429-23.429-37.714 25.143-60 65.714t-22.286 88q0 50.286 25.143 93.143 69.143-85.143 168.286-136.286t212.286-56.857q-4.571 21.714-4.571 42.286 0 76.571 54 130.571t130.571 54q80 0 134.857-58.286 62.286 12 117.143 44.571-21.143-65.714-81.143-101.714 53.143 5.714 106.286 28.571z" />
<glyph unicode="&#xe911;" glyph-name="facebook" horiz-adv-x="585" d="M548 953.143v-150.857h-89.714q-49.143 0-66.286-20.571t-17.143-61.714v-108h167.429l-22.286-169.143h-145.143v-433.714h-174.857v433.714h-145.714v169.143h145.714v124.571q0 106.286 59.429 164.857t158.286 58.571q84 0 130.286-6.857z" />
<glyph unicode="&#xe912;" glyph-name="gallery" horiz-adv-x="1448" d="M618.462 451.599l210.486-229.766 21.422 19.659-114.492 125.196 42.455 46.145 175.049-191.016 21.422 19.659-196.467 214.778-62.303-67.957-97.559 106.505-232.103-253.319 21.617-19.659zM916.384 483.152c38.94 0 70.681 31.741 70.681 70.681s-31.741 70.681-70.681 70.681-70.681-31.741-70.681-70.681 31.741-70.681 70.681-70.681zM916.384 595.109c22.775 0 41.471-18.502 41.471-41.471s-18.502-41.471-41.471-41.471-41.471 18.502-41.471 41.471 18.502 41.471 41.471 41.471zM1138.161 776h-769.916v-77.879h-58.409v-578.12h750.443v58.409h77.879v597.591zM1031.069 149.213h-692.018v519.695h692.018v-519.695zM1108.958 207.625h-48.686v490.495h-662.82v48.686h711.493v-539.17z" />
<glyph unicode="&#xeac9;" glyph-name="linkedin" d="M928 960h-832c-52.8 0-96-43.2-96-96v-832c0-52.8 43.2-96 96-96h832c52.8 0 96 43.2 96 96v832c0 52.8-43.2 96-96 96zM384 128h-128v448h128v-448zM320 640c-35.4 0-64 28.6-64 64s28.6 64 64 64c35.4 0 64-28.6 64-64s-28.6-64-64-64zM832 128h-128v256c0 35.4-28.6 64-64 64s-64-28.6-64-64v-256h-128v448h128v-79.4c26.4 36.2 66.8 79.4 112 79.4 79.6 0 144-71.6 144-160v-288z" />
<glyph unicode="&#xeaca;" glyph-name="linkedin2" d="M384 576h177.106v-90.782h2.532c24.64 44.194 84.958 90.782 174.842 90.782 186.946 0 221.52-116.376 221.52-267.734v-308.266h-184.61v273.278c0 65.184-1.334 149.026-96.028 149.026-96.148 0-110.82-70.986-110.82-144.292v-278.012h-184.542v576zM64 576h192v-576h-192v576zM256 736c0-53.019-42.981-96-96-96s-96 42.981-96 96c0 53.019 42.981 96 96 96s96-42.981 96-96z" />
</font>
</defs>
</svg>
